# xmcd
#
# Track frame offsets: 
#        150
#        19325
#        41600
#        64162
#        85212
#        103650
#        127137
#        145250
#        166450
#        186562
#        207400
#        230675
#        248275
#        270700
#
# Disc length: 3874 seconds
#
# Revision: 3
# Processed by: cddbd v1.5.2PL0 Copyright (c) Steve Scherf et al.
# Submitted via: ExactAudioCopyFreeDBPlugin 1.0
#
DISCID=d00f200e
DTITLE=劉徳華 - 回家真好 (新曲+精選)
DYEAR=1999
DGENRE=Pop
TTITLE0=張家輝 - 情深的一句
TTITLE1=你是我的女人
TTITLE2=除非...是你
TTITLE3=絕對在乎您
TTITLE4=再吻我吧
TTITLE5=絕望的笑容
TTITLE6=倒轉地球
TTITLE7=謝謝你的愛 - Live Version
TTITLE8=情人Happy Birthday - Live Version
TTITLE9=真我的風采 - Live Version
TTITLE10=這一生中是給你一個 - Live Version
TTITLE11=暗裡著迷 - Live Version
TTITLE12=假裝 - Live Version
TTITLE13=獨自去偷歡 - Live Version
EXTD=YEAR: 1999
EXTT0=
EXTT1=
EXTT2=
EXTT3=
EXTT4=
EXTT5=
EXTT6=
EXTT7=
EXTT8=
EXTT9=
EXTT10=
EXTT11=
EXTT12=
EXTT13=
PLAYORDER=
